HIERARCHY
ROOT Hips
{
	OFFSET 0.000000 0.000000 0.000000
	CHANNELS 6 Xposition Yposition Zposition Xrotation Yrotation Zrotation
	JOINT LeftUpLeg_virtual
	{
		OFFSET 0.000000 0.000000 0.000000
		CHANNELS 3 Xrotation Yrotation Zrotation
		JOINT LeftUpLeg
		{
			OFFSET 13.026900 -6.336304 -1.092800
			CHANNELS 3 Xrotation Yrotation Zrotation
			JOINT LeftLeg
			{
				OFFSET 0.524474 -46.096886 9.782700
				CHANNELS 3 Xrotation Yrotation Zrotation
				JOINT LeftFoot
				{
					OFFSET -0.524474 -53.427422 -12.948200
					CHANNELS 3 Xrotation Yrotation Zrotation
					JOINT LeftToeBase
					{
						OFFSET 0.192200 -14.009700 16.364100
						CHANNELS 3 Xrotation Yrotation Zrotation
						JOINT LeftToe_End
						{
							OFFSET -1.784700 -0.561700 9.474800
							CHANNELS 3 Xrotation Yrotation Zrotation
							End Site
							{
								OFFSET 0 0 0
							}
						}
					}
				}
			}
		}
	}
	JOINT RightUpLeg_virtual
	{
		OFFSET 0.000000 0.000000 0.000000
		CHANNELS 3 Xrotation Yrotation Zrotation
		JOINT RightUpLeg
		{
			OFFSET -12.883000 -6.336304 -1.092800
			CHANNELS 3 Xrotation Yrotation Zrotation
			JOINT RightLeg
			{
				OFFSET -0.524587 -46.096825 9.782800
				CHANNELS 3 Xrotation Yrotation Zrotation
				JOINT RightFoot
				{
					OFFSET 0.524587 -53.427383 -12.948300
					CHANNELS 3 Xrotation Yrotation Zrotation
					JOINT RightToeBase
					{
						OFFSET -0.192200 -14.009700 16.364100
						CHANNELS 3 Xrotation Yrotation Zrotation
						JOINT RightToe_End
						{
							OFFSET 1.784700 -0.561700 9.474800
							CHANNELS 3 Xrotation Yrotation Zrotation
							End Site
							{
								OFFSET 0 0 0
							}
						}
					}
				}
			}
		}
	}
	JOINT Spine_virtual
	{
		OFFSET 0.000000 0.000000 0.000000
		CHANNELS 3 Xrotation Yrotation Zrotation
		JOINT Spine
		{
			OFFSET 0.072000 7.257294 -0.789700
			CHANNELS 3 Xrotation Yrotation Zrotation
			JOINT Spine1
			{
				OFFSET 0.000000 12.508769 -0.658067
				CHANNELS 3 Xrotation Yrotation Zrotation
				JOINT Spine1_split
				{
					OFFSET 0.000000 12.508769 -0.658067
					CHANNELS 3 Xrotation Yrotation Zrotation
					JOINT Spine2
					{
						OFFSET 0.000000 12.508769 -0.658067
						CHANNELS 3 Xrotation Yrotation Zrotation
						JOINT Neck_virtual
						{
							OFFSET 0.000000 0.000000 0.000000
							CHANNELS 3 Xrotation Yrotation Zrotation
							JOINT Neck
							{
								OFFSET 0.000000 14.033295 7.520400
								CHANNELS 3 Xrotation Yrotation Zrotation
								JOINT Head
								{
									OFFSET 0.000000 8.198502 5.703100
									CHANNELS 3 Xrotation Yrotation Zrotation
									JOINT HeadTop_End
									{
										OFFSET 0.000000 17.760803 13.332701
										CHANNELS 3 Xrotation Yrotation Zrotation
										End Site
										{
											OFFSET 0 0 0
										}
									}
								}
							}
						}
						JOINT LeftShoulder_virtual
						{
							OFFSET 0.000000 0.000000 0.000000
							CHANNELS 3 Xrotation Yrotation Zrotation
							JOINT LeftShoulder
							{
								OFFSET 6.292450 5.785301 -0.669000
								CHANNELS 3 Xrotation Yrotation Zrotation
								JOINT LeftShoulder_split
								{
									OFFSET 6.292450 5.785301 -0.669000
									CHANNELS 3 Xrotation Yrotation Zrotation
									JOINT LeftArm
									{
										OFFSET 13.907140 -6.093903 1.965100
										CHANNELS 3 Xrotation Yrotation Zrotation
										JOINT LeftForeArm
										{
											OFFSET 34.140198 0.000000 0.000000
											CHANNELS 3 Xrotation Yrotation Zrotation
											JOINT LeftHand
											{
												OFFSET 40.960209 0.000000 0.000000
												CHANNELS 3 Xrotation Yrotation Zrotation
												End Site
												{
													OFFSET 0 0 0
												}
											}
										}
									}
								}
							}
						}
						JOINT RightShoulder_virtual
						{
							OFFSET 0.000000 0.000000 0.000000
							CHANNELS 3 Xrotation Yrotation Zrotation
							JOINT RightShoulder
							{
								OFFSET -6.292450 5.785301 -0.669000
								CHANNELS 3 Xrotation Yrotation Zrotation
								JOINT RightShoulder_split
								{
									OFFSET -6.292450 5.785301 -0.669000
									CHANNELS 3 Xrotation Yrotation Zrotation
									JOINT RightArm
									{
										OFFSET -13.907140 -6.093903 1.965100
										CHANNELS 3 Xrotation Yrotation Zrotation
										JOINT RightForeArm
										{
											OFFSET -34.140198 0.000000 0.000000
											CHANNELS 3 Xrotation Yrotation Zrotation
											JOINT RightHand
											{
												OFFSET -40.960209 0.000000 0.000000
												CHANNELS 3 Xrotation Yrotation Zrotation
												End Site
												{
													OFFSET 0 0 0
												}
											}
										}
									}
								}
							}
						}
					}
				}
			}
		}
	}
}
MOTION
Frames: 11
Frame Time: 0.03333333
-14.814053 87.957840 -3.315308 0.000000 0.000000 0.000000 -7.642150 -47.686369 1.536950 -29.086665 4.382652 26.290568 47.575430 -10.072772 8.912315 -13.473475 -10.535271 -24.410222 -3.835991 0.025801 -0.753065 0.000000 0.000000 0.000000 -9.006712 -45.044469 2.124815 -25.481750 -1.968867 -38.804617 53.917561 2.632276 -5.427319 -13.318064 -12.575583 32.994465 -2.171349 0.583345 0.650509 0.000000 0.000000 0.000000 -5.923648 -44.794426 3.220360 9.423252 7.034004 -1.588888 2.195254 0.593943 -2.294495 0.571835 -1.603371 0.824832 0.000000 0.000000 0.000000 2.751003 0.405186 -2.029386 1.112093 13.283677 1.930255 11.248177 17.268583 0.679685 0.000000 0.000000 0.000000 3.048190 0.309622 -2.343726 1.874084 -2.807973 -13.280444 -1.834600 -1.911070 0.628507 -68.800694 -0.577629 -40.203928 178.459196 -76.161787 179.620083 0.000000 0.000000 0.000000 3.804923 0.512425 -2.081561 3.412674 11.325214 -12.488776 -2.606369 0.185863 0.534932 -66.101963 20.258160 88.177483 -16.579497 84.649977 14.317502 0.000000 0.000000 0.000000 
-16.109690 88.644226 -3.668953 0.000000 0.000000 0.000000 -8.306878 -49.168712 1.111462 -28.220827 3.478778 26.758562 47.627213 -9.540152 8.941619 -11.241927 -9.897567 -23.486890 -4.614019 0.092775 -1.382932 0.000000 0.000000 0.000000 -9.946673 -45.755779 1.650697 -25.633454 -3.078544 -38.790666 55.179473 2.337578 -5.216752 -15.101833 -12.045391 32.095066 -1.217670 0.634424 1.071679 0.000000 0.000000 0.000000 -6.617987 -45.616723 3.046014 9.367072 6.780048 -1.599904 2.187127 0.149101 -2.429239 0.620023 -1.234319 0.998683 0.000000 0.000000 0.000000 2.732022 -0.098811 -2.144109 1.609935 13.366649 1.900929 11.639830 17.679156 -0.195929 0.000000 0.000000 0.000000 3.062873 -0.171135 -2.443104 1.961654 -1.522049 -12.902304 -1.587059 -1.904145 0.757213 -68.390869 -1.106097 -41.604933 178.794080 -75.128789 -179.866065 0.000000 0.000000 0.000000 3.779413 0.030905 -2.212327 3.315885 10.468995 -13.333193 -2.323497 0.269645 0.360657 -66.852696 19.209752 88.529094 -19.215619 85.152890 16.805240 0.000000 0.000000 0.000000 
-17.500042 90.026192 -3.845379 0.000000 0.000000 0.000000 -8.712374 -49.975487 0.889434 -28.133623 2.859698 27.024169 47.827249 -9.274618 8.823797 -8.063977 -10.158528 -22.762966 -6.533981 0.111740 -1.712318 0.000000 0.000000 0.000000 -10.653140 -46.412249 1.341314 -25.529017 -4.804660 -38.587987 55.647836 1.911744 -4.842650 -16.575556 -11.489159 31.017303 -0.437623 0.728008 1.285540 0.000000 0.000000 0.000000 -6.943402 -46.230682 2.988347 9.215579 6.517143 -1.552403 2.114001 -0.318089 -2.501733 0.592225 -0.839141 0.988442 0.000000 0.000000 0.000000 2.678782 -0.590152 -2.189453 1.863618 13.418970 2.129487 11.772353 18.244306 -1.234790 0.000000 0.000000 0.000000 3.042369 -0.633615 -2.484765 2.021120 -0.818415 -12.479451 -1.187204 -1.590418 0.644518 -66.754560 -1.656822 -43.147753 179.225994 -74.172193 -179.397856 0.000000 0.000000 0.000000 3.668770 -0.431355 -2.276176 3.179833 9.525534 -13.705473 -1.992518 0.197382 0.144077 -67.577338 17.940376 89.012111 -30.554978 86.893790 28.089658 0.000000 0.000000 0.000000 
-19.021729 91.725685 -3.899319 0.000000 0.000000 0.000000 -8.756903 -50.105837 1.012609 -28.727468 3.053998 26.846238 47.899311 -9.062650 8.390943 -5.273146 -11.053908 -21.915591 -8.664541 0.051736 -1.649752 0.000000 0.000000 0.000000 -10.968717 -47.003801 1.298833 -25.144126 -6.714899 -38.269874 55.082829 1.604826 -4.514774 -17.183771 -10.830383 30.548837 -0.597992 0.808452 1.282049 0.000000 0.000000 0.000000 -6.938426 -46.608060 3.109382 9.033677 6.318785 -1.486833 2.006241 -0.669572 -2.514260 0.524028 -0.538803 0.909801 0.000000 0.000000 0.000000 2.621591 -0.926517 -2.188964 1.799915 13.416878 2.527258 11.505143 18.822922 -2.252513 0.000000 0.000000 0.000000 2.986665 -0.943841 -2.477549 2.039694 -0.725093 -12.185313 -0.756211 -1.122118 0.263265 -63.770491 -2.199190 -44.644210 179.677033 -73.477331 -179.047767 0.000000 0.000000 0.000000 3.526596 -0.747739 -2.288105 3.010404 8.588536 -13.424299 -1.672399 -0.082766 -0.032623 -67.432429 16.996687 89.372588 -107.645270 88.484056 105.256056 0.000000 0.000000 0.000000 
-20.636604 93.413666 -3.813362 0.000000 0.000000 0.000000 -8.492419 -49.755572 1.438596 -29.924415 3.969146 26.158759 47.973483 -8.941430 7.759126 -3.711915 -12.284520 -21.065685 -9.621492 -0.106996 -1.253042 0.000000 0.000000 0.000000 -10.664192 -47.470098 1.631818 -24.335597 -8.531303 -37.616341 53.626394 1.266488 -4.312090 -17.361207 -10.451100 30.307243 -1.084032 0.838486 1.142194 0.000000 0.000000 0.000000 -6.658764 -46.752157 3.368139 8.900506 6.219103 -1.445115 1.878339 -0.801164 -2.447820 0.434801 -0.324607 0.759600 0.000000 0.000000 0.000000 2.564348 -1.019093 -2.142188 1.381477 13.331289 2.942100 10.890439 19.301884 -3.142353 0.000000 0.000000 0.000000 2.895371 -1.017400 -2.408928 2.022780 -1.164869 -12.075705 -0.526556 -0.581515 -0.085532 -59.615742 -2.480863 -45.816940 -179.704121 -73.135097 -178.586866 0.000000 0.000000 0.000000 3.394857 -0.834875 -2.223668 2.853243 7.829512 -12.502929 -1.385371 -0.364791 -0.157908 -66.046379 16.765524 89.446101 -164.335171 85.622391 162.159209 0.000000 0.000000 0.000000 
-22.317104 94.678154 -3.596691 0.000000 0.000000 0.000000 -7.940563 -49.264068 2.035854 -31.569766 5.250005 25.048788 48.204593 -8.984072 7.058774 -3.606064 -13.583267 -20.416031 -8.679921 -0.329395 -0.614027 0.000000 0.000000 0.000000 -9.829342 -47.731630 2.244115 -23.194971 -10.002285 -36.597045 51.889996 0.773181 -4.190071 -17.903232 -10.580261 29.678777 -0.940221 0.831595 0.980235 0.000000 0.000000 0.000000 -6.152625 -46.759086 3.701198 8.844295 6.255702 -1.438017 1.745530 -0.672760 -2.280555 0.457341 -0.271122 0.642072 0.000000 0.000000 0.000000 2.476512 -0.838247 -2.010167 0.734781 13.169636 3.211780 10.034055 19.585332 -3.790829 0.000000 0.000000 0.000000 2.772738 -0.833596 -2.254428 1.978715 -1.855758 -12.031754 -0.464956 -0.133445 -0.238785 -55.174295 -2.283660 -46.596838 -179.123487 -73.210243 -178.170798 0.000000 0.000000 0.000000 3.313581 -0.646316 -2.070308 2.771998 7.444618 -11.098763 -1.309092 -0.617919 -0.110925 -63.475386 17.564631 89.200249 -173.683788 82.134459 171.808778 0.000000 0.000000 0.000000 
-24.029890 95.352737 -3.309341 0.000000 0.000000 0.000000 -7.190906 -49.154891 2.586506 -33.419497 6.499453 23.843197 48.542069 -9.035557 6.414293 -4.618212 -14.777446 -19.825328 -6.824432 -0.555968 0.216918 0.000000 0.000000 0.000000 -8.754931 -47.732726 2.871103 -21.999022 -10.951391 -35.285710 50.897446 0.045122 -4.091380 -19.059168 -11.209979 28.485832 -0.320116 0.786303 0.884878 0.000000 0.000000 0.000000 -5.581290 -46.675283 3.997332 8.878091 6.413730 -1.481511 1.635127 -0.320100 -2.008993 0.489733 -0.500546 0.724362 0.000000 0.000000 0.000000 2.415049 -0.432254 -1.779366 0.023333 12.985154 3.289803 9.129978 19.637178 -4.164318 0.000000 0.000000 0.000000 2.638866 -0.437928 -1.994529 1.921917 -2.418980 -11.989022 -0.768615 0.063347 -0.275693 -51.311400 -1.360512 -47.029858 -178.759206 -73.421535 -177.938381 0.000000 0.000000 0.000000 3.248800 -0.252132 -1.809983 2.755398 7.468610 -9.489608 -1.434826 -0.700572 0.119867 -60.236340 19.243699 88.650637 -177.068665 79.161237 175.509770 0.000000 0.000000 0.000000 
-25.731833 95.423561 -3.126362 0.000000 0.000000 0.000000 -6.432453 -49.623892 2.855197 -34.772141 7.344555 22.612420 48.931636 -8.865545 5.937290 -6.295676 -15.521385 -19.017219 -5.609739 -0.756846 1.152035 0.000000 0.000000 0.000000 -7.791303 -47.691164 3.251136 -20.993227 -11.240060 -33.828875 51.093882 -0.649715 -4.063097 -20.294102 -12.047259 27.234963 -0.074191 0.716002 0.834832 0.000000 0.000000 0.000000 -4.976706 -46.647825 4.093999 8.962291 6.643141 -1.571217 1.535854 0.158727 -1.683110 0.616872 -0.919286 0.834227 0.000000 0.000000 0.000000 2.397937 0.082343 -1.467635 -0.557403 12.839716 3.182794 8.463053 19.582945 -4.316215 0.000000 0.000000 0.000000 2.502514 0.053210 -1.674412 1.864829 -2.618384 -11.751983 -1.255538 0.137585 -0.163247 -48.846538 0.300892 -47.371597 -178.661466 -73.502111 -177.920240 0.000000 0.000000 0.000000 3.186063 0.240202 -1.469768 2.814053 7.882878 -7.981489 -1.801706 -0.658720 0.477057 -57.007477 21.369314 87.872071 -178.648693 76.972871 177.363197 0.000000 0.000000 0.000000 
-27.403555 94.954369 -2.902245 0.000000 0.000000 0.000000 -5.740874 -50.522414 2.741580 -35.248943 7.533494 21.402724 49.350712 -8.137083 5.614459 -8.506767 -15.379105 -17.743088 -5.291789 -0.869806 1.700270 0.000000 0.000000 0.000000 -7.147994 -47.917537 3.177273 -20.357071 -10.844294 -32.441865 52.257019 -0.913687 -4.205105 -21.235403 -12.663880 26.643093 -0.345975 0.650778 0.813032 0.000000 0.000000 0.000000 -4.474702 -46.713911 3.896567 9.017550 6.906019 -1.672224 1.423801 0.641957 -1.369563 0.800932 -1.346291 0.925085 0.000000 0.000000 0.000000 2.424868 0.564970 -1.129600 -0.868310 12.773021 2.986213 8.149062 19.488878 -4.279884 0.000000 0.000000 0.000000 2.398232 0.519215 -1.344469 1.824403 -2.269779 -11.185334 -1.748334 0.015699 -0.252299 -48.122463 2.282883 -47.771228 -178.927160 -73.424704 -178.232461 0.000000 0.000000 0.000000 3.112005 0.696271 -1.137510 2.934802 8.566428 -6.825459 -2.283332 -0.579155 0.898218 -54.328182 23.425730 87.045379 -179.422171 75.390699 178.343466 0.000000 0.000000 0.000000 
-28.882250 94.166885 -2.830330 0.000000 0.000000 0.000000 -5.364663 -51.559923 2.173349 -35.220034 7.211417 20.550405 50.033745 -6.793689 5.361360 -11.035729 -14.252794 -16.150536 -5.122122 -0.814165 1.424489 0.000000 0.000000 0.000000 -6.781465 -48.581018 2.652156 -19.872140 -9.991822 -31.156642 53.688589 -0.727375 -4.535365 -22.011646 -12.966951 26.732800 -0.714566 0.605949 0.825835 0.000000 0.000000 0.000000 -4.086588 -46.971085 3.444986 9.030677 7.163534 -1.750345 1.293116 1.026974 -1.127964 0.867148 -1.533777 0.927565 0.000000 0.000000 0.000000 2.444693 0.904404 -0.851083 -0.900138 12.800586 2.825294 8.244602 19.414353 -4.129073 0.000000 0.000000 0.000000 2.360869 0.867070 -1.060302 1.800386 -1.451285 -10.263745 -1.997819 -0.140767 -0.601476 -48.962512 4.019550 -48.288748 -179.509188 -73.150684 -178.852410 0.000000 0.000000 0.000000 3.017343 1.000654 -0.897657 3.094875 9.358876 -6.117941 -2.506397 -0.460081 1.143338 -52.488460 24.893642 86.375269 -179.873182 73.990879 178.959152 0.000000 0.000000 0.000000 
-30.074430 93.291924 -2.781071 0.000000 0.000000 0.000000 -5.397183 -52.461474 1.198927 -34.998384 6.692121 20.310298 51.247066 -5.197613 5.180694 -13.392835 -12.490594 -14.890041 -4.248714 -0.603867 0.424568 0.000000 0.000000 0.000000 -6.662644 -49.691272 1.795302 -19.316427 -8.993324 -29.984940 54.784906 -0.335180 -4.955680 -22.690247 -13.071478 26.990502 -0.760932 0.607793 0.860227 0.000000 0.000000 0.000000 -3.768347 -47.491736 2.838515 8.994230 7.391460 -1.804600 1.147753 1.280042 -0.991683 1.007272 -1.335097 0.821220 0.000000 0.000000 0.000000 2.387079 1.048635 -0.686865 -0.684126 12.862496 2.760740 8.673866 19.458900 -3.938838 0.000000 0.000000 0.000000 2.375909 1.051556 -0.870741 1.783677 -0.374337 -9.007563 -1.824761 -0.328560 -0.903908 -50.972192 5.143845 -48.879856 179.639945 -72.943442 -179.731702 0.000000 0.000000 0.000000 2.951360 1.130824 -0.802839 3.292566 10.112634 -5.856555 -2.392815 -0.424018 1.136906 -51.458758 25.665856 85.917189 179.864918 72.575896 179.339253 0.000000 0.000000 0.000000 
